<svg width="39" height="26" viewBox="0 0 39 26" fill="none" xmlns="http://www.w3.org/2000/svg">
<path d="M26.6367 0.82193C23.9805 0.82193 21.5174 1.66415 19.5 3.09516C17.4827 1.66404 15.0195 0.82193 12.3634 0.82193C5.54621 0.82193 0 6.36814 0 13.1852C0 20.0022 5.54621 25.5485 12.3633 25.5485C15.0194 25.5485 17.4825 24.7063 19.4999 23.2752C21.5173 24.7063 23.9804 25.5485 26.6366 25.5485C33.4537 25.5485 38.9998 20.0023 38.9998 13.1852C38.9998 6.36804 33.4537 0.82193 26.6367 0.82193ZM19.5 18.9703C18.2161 17.3894 17.4452 15.3757 17.4452 13.1852C17.4452 10.9946 18.216 8.98086 19.5 7.39993C20.784 8.98086 21.5548 10.9945 21.5548 13.1852C21.5548 15.3758 20.784 17.3895 19.5 18.9703ZM3.1718 13.1852C3.1718 8.11697 7.29514 3.99363 12.3633 3.99363C14.0982 3.99363 15.7223 4.47701 17.1083 5.31584C15.3383 7.45522 14.2734 10.1981 14.2734 13.1851C14.2734 16.1721 15.3383 18.9149 17.1083 21.0543C15.7223 21.8932 14.0982 22.3765 12.3633 22.3765C7.29514 22.3767 3.1718 18.2534 3.1718 13.1852ZM26.6367 22.3767C24.9018 22.3767 23.2776 21.8933 21.8917 21.0544C23.6616 18.9151 24.7265 16.1722 24.7265 13.1852C24.7265 10.1982 23.6616 7.45522 21.8917 5.31595C23.2776 4.47711 24.9017 3.99373 26.6367 3.99373C31.7049 3.99373 35.8281 8.11707 35.8281 13.1853C35.8281 18.2535 31.7048 22.3767 26.6367 22.3767Z" fill="#D6B9F3"/>
</svg>
